<svg width="886" height="168" viewBox="0 0 886 168" fill="none" xmlns="http://www.w3.org/2000/svg">
<mask id="path-1-inside-1_2214_137553" fill="white">
<path d="M3.94641 132.038H22.6941L39.271 37.7076H20.7207L24.4702 15.8024H100.842C116.104 15.8024 127.747 19.2888 135.772 26.2616C143.798 33.2344 147.81 43.3648 147.81 56.6526C147.81 65.9936 145.311 74.4136 140.311 81.9127C135.312 89.4118 128.273 95.3321 119.195 99.6737C110.249 103.884 99.9215 105.989 88.2124 105.989H54.2692L49.7303 132.038H72.0302L68.0833 153.943H-0.000471873L3.94641 132.038ZM89.9885 84.0835C96.3035 84.0835 101.763 82.9652 106.368 80.7286C110.973 78.4921 114.525 75.3346 117.025 71.2561C119.524 67.1777 120.774 62.5072 120.774 57.2447C120.774 50.7981 118.801 45.9303 114.854 42.6412C111.039 39.3521 105.118 37.7076 97.0929 37.7076H66.1099L58.0187 84.0835H89.9885ZM194.367 157.101C185.289 157.101 177.198 155.391 170.093 151.97C163.12 148.418 157.661 143.353 153.714 136.774C149.767 130.065 147.793 122.105 147.793 112.896C147.793 101.45 150.556 91.1879 156.082 82.11C161.608 72.9006 169.041 65.7305 178.382 60.5995C187.723 55.4686 197.853 52.9031 208.773 52.9031C217.719 52.9031 225.679 54.6792 232.651 58.2314C239.756 61.652 245.281 66.6514 249.228 73.2296C253.307 79.8077 255.346 87.7015 255.346 96.9109C255.346 108.225 252.583 118.487 247.058 127.697C241.664 136.906 234.296 144.142 224.955 149.404C215.614 154.535 205.418 157.101 194.367 157.101ZM197.524 135.393C204.102 135.393 209.825 133.683 214.693 130.262C219.693 126.841 223.508 122.368 226.139 116.843C228.77 111.317 230.086 105.397 230.086 99.0816C230.086 91.451 227.915 85.4649 223.574 81.1233C219.364 76.7817 213.509 74.611 206.01 74.611C199.3 74.611 193.446 76.3871 188.446 79.9393C183.447 83.3599 179.632 87.833 177 93.3587C174.369 98.7527 173.053 104.542 173.053 110.725C173.053 118.356 175.224 124.407 179.566 128.881C183.907 133.222 189.894 135.393 197.524 135.393ZM260.028 133.222H276.605L286.472 76.7817H269.896L273.645 56.0606H312.522L311.535 69.2827C315.877 64.0202 320.679 60.0075 325.941 57.2447C331.204 54.3503 336.729 52.9031 342.518 52.9031C346.202 52.9031 349.886 53.4293 353.57 54.4818C357.253 55.4028 360.477 56.85 363.239 58.8234L350.609 81.518C345.742 78.2289 340.084 76.5844 333.638 76.5844C329.165 76.5844 325.086 77.7027 321.402 79.9393C317.719 82.1758 314.627 85.4649 312.127 89.8065C309.628 94.148 307.851 99.4106 306.799 105.594L302.063 133.222H321.205L317.653 153.943H256.279L260.028 133.222ZM405.443 157.101C394.524 157.101 386.827 153.878 382.354 147.431C378.012 140.984 376.894 131.775 378.999 119.803L386.498 76.7817H367.553L371.105 56.0606H390.05L394.589 31.1952L420.441 28.4324L415.508 56.0606H442.149L438.597 76.7817H411.956L404.062 120.79C403.273 125.526 403.601 129.144 405.049 131.643C406.627 134.143 409.324 135.393 413.14 135.393C415.771 135.393 418.336 134.998 420.836 134.209C423.467 133.42 425.901 132.433 428.138 131.249L430.506 151.181C427.085 153.022 423.204 154.47 418.863 155.522C414.653 156.575 410.18 157.101 405.443 157.101ZM445.089 133.222H461.666L471.534 76.7817H452.786L456.535 56.0606H475.086L476.27 50.535C478.506 37.6418 482.716 28.1035 488.9 21.92C495.215 15.7366 503.898 12.6449 514.949 12.6449C520.212 12.6449 525.409 13.3685 530.54 14.8156C535.671 16.2628 540.275 18.2363 544.354 20.736L533.105 39.681C527.579 36.1288 521.856 34.3527 515.936 34.3527C511.858 34.3527 508.7 35.6026 506.464 38.1023C504.227 40.602 502.648 44.4831 501.727 49.7456L500.543 56.0606H528.566L525.014 76.7817H496.991L487.124 133.222H508.437L504.687 153.943H441.34L445.089 133.222ZM574.601 157.101C565.523 157.101 557.432 155.391 550.328 151.97C543.355 148.418 537.895 143.353 533.948 136.774C530.001 130.065 528.028 122.105 528.028 112.896C528.028 101.45 530.791 91.1879 536.316 82.11C541.842 72.9006 549.275 65.7305 558.616 60.5995C567.957 55.4686 578.088 52.9031 589.007 52.9031C597.954 52.9031 605.913 54.6792 612.886 58.2314C619.99 61.652 625.516 66.6514 629.463 73.2296C633.541 79.8077 635.581 87.7015 635.581 96.9109C635.581 108.225 632.818 118.487 627.292 127.697C621.898 136.906 614.531 144.142 605.19 149.404C595.849 154.535 585.653 157.101 574.601 157.101ZM577.759 135.393C584.337 135.393 590.06 133.683 594.928 130.262C599.927 126.841 603.742 122.368 606.374 116.843C609.005 111.317 610.321 105.397 610.321 99.0816C610.321 91.451 608.15 85.4649 603.808 81.1233C599.598 76.7817 593.744 74.611 586.245 74.611C579.535 74.611 573.68 76.3871 568.681 79.9393C563.682 83.3599 559.866 87.833 557.235 93.3587C554.604 98.7527 553.288 104.542 553.288 110.725C553.288 118.356 555.459 124.407 559.8 128.881C564.142 133.222 570.128 135.393 577.759 135.393ZM638.689 133.222H655.068L672.04 36.5235H655.463L659.015 15.8024H701.05L680.526 133.222H697.103L693.353 153.943H634.939L638.689 133.222ZM707.334 133.222H723.713L733.581 76.7817H717.004L720.753 56.0606H762.59L749.171 133.222H765.55L761.801 153.943H703.584L707.334 133.222ZM752.526 42.2465C748.316 42.2465 744.895 41.0624 742.264 38.6943C739.632 36.1946 738.317 33.0371 738.317 29.2218C738.317 24.354 739.961 20.3413 743.25 17.1838C746.54 13.8947 750.815 12.2502 756.078 12.2502C760.288 12.2502 763.643 13.5 766.142 15.9997C768.774 18.3678 770.089 21.4596 770.089 25.2749C770.089 30.1427 768.445 34.2212 765.156 37.5102C761.867 40.6677 757.657 42.2465 752.526 42.2465ZM824.943 157.101C815.865 157.101 807.774 155.391 800.67 151.97C793.697 148.418 788.237 143.353 784.29 136.774C780.343 130.065 778.37 122.105 778.37 112.896C778.37 101.45 781.133 91.1879 786.659 82.11C792.184 72.9006 799.617 65.7305 808.958 60.5995C818.299 55.4686 828.43 52.9031 839.349 52.9031C848.296 52.9031 856.255 54.6792 863.228 58.2314C870.332 61.652 875.858 66.6514 879.805 73.2296C883.883 79.8077 885.923 87.7015 885.923 96.9109C885.923 108.225 883.16 118.487 877.634 127.697C872.24 136.906 864.873 144.142 855.532 149.404C846.191 154.535 835.995 157.101 824.943 157.101ZM828.101 135.393C834.679 135.393 840.402 133.683 845.27 130.262C850.269 126.841 854.084 122.368 856.716 116.843C859.347 111.317 860.663 105.397 860.663 99.0816C860.663 91.451 858.492 85.4649 854.15 81.1233C849.94 76.7817 844.086 74.611 836.587 74.611C829.877 74.611 824.022 76.3871 819.023 79.9393C814.024 83.3599 810.208 87.833 807.577 93.3587C804.946 98.7527 803.63 104.542 803.63 110.725C803.63 118.356 805.801 124.407 810.142 128.881C814.484 133.222 820.47 135.393 828.101 135.393Z"/>
</mask>
<path d="M3.94641 132.038V131.438H3.44486L3.35592 131.932L3.94641 132.038ZM22.6941 132.038V132.638H23.1979L23.2851 132.142L22.6941 132.038ZM39.271 37.7076L39.862 37.8114L39.9857 37.1076H39.271V37.7076ZM20.7207 37.7076L20.1293 37.6063L20.0092 38.3076H20.7207V37.7076ZM24.4702 15.8024V15.2024H23.9642L23.8788 15.7011L24.4702 15.8024ZM135.772 26.2616L135.379 26.7145V26.7145L135.772 26.2616ZM140.311 81.9127L140.811 82.2455V82.2455L140.311 81.9127ZM119.195 99.6737L119.451 100.217L119.454 100.215L119.195 99.6737ZM54.2692 105.989V105.389H53.7647L53.6781 105.886L54.2692 105.989ZM49.7303 132.038L49.1392 131.935L49.0167 132.638H49.7303V132.038ZM72.0302 132.038L72.6207 132.145L72.748 131.438H72.0302V132.038ZM68.0833 153.943V154.543H68.5849L68.6738 154.05L68.0833 153.943ZM-0.00047183 153.943L-0.590963 153.837L-0.718242 154.543H-0.00047183V153.943ZM106.368 80.7286L106.106 80.1889V80.1889L106.368 80.7286ZM117.025 71.2561L116.513 70.9426V70.9426L117.025 71.2561ZM114.854 42.6412L114.462 43.0957L114.47 43.1021L114.854 42.6412ZM66.1099 37.7076V37.1076H65.6055L65.5188 37.6045L66.1099 37.7076ZM58.0187 84.0835L57.4277 83.9804L57.305 84.6835H58.0187V84.0835ZM3.94641 132.038V132.638H22.6941V132.038V131.438H3.94641V132.038ZM22.6941 132.038L23.2851 132.142L39.862 37.8114L39.271 37.7076L38.6801 37.6037L22.1032 131.934L22.6941 132.038ZM39.271 37.7076V37.1076H20.7207V37.7076V38.3076H39.271V37.7076ZM20.7207 37.7076L21.3121 37.8088L25.0616 15.9036L24.4702 15.8024L23.8788 15.7011L20.1293 37.6063L20.7207 37.7076ZM24.4702 15.8024V16.4024H100.842V15.8024V15.2024H24.4702V15.8024ZM100.842 15.8024V16.4024C116.021 16.4024 127.502 19.8706 135.379 26.7145L135.772 26.2616L136.166 25.8087C127.992 18.707 116.186 15.2024 100.842 15.2024V15.8024ZM135.772 26.2616L135.379 26.7145C143.241 33.5459 147.21 43.4916 147.21 56.6526H147.81H148.41C148.41 43.238 144.354 32.923 136.166 25.8087L135.772 26.2616ZM147.81 56.6526H147.21C147.21 65.8797 144.743 74.1831 139.812 81.5799L140.311 81.9127L140.811 82.2455C145.878 74.6441 148.41 66.1075 148.41 56.6526H147.81ZM140.311 81.9127L139.812 81.5799C134.879 88.979 127.929 94.8318 118.937 99.1324L119.195 99.6737L119.454 100.215C128.618 95.8324 135.744 89.8446 140.811 82.2455L140.311 81.9127ZM119.195 99.6737L118.94 99.1308C110.087 103.297 99.8493 105.389 88.2124 105.389V105.989V106.589C99.9937 106.589 110.411 104.47 119.451 100.217L119.195 99.6737ZM88.2124 105.989V105.389H54.2692V105.989V106.589H88.2124V105.989ZM54.2692 105.989L53.6781 105.886L49.1392 131.935L49.7303 132.038L50.3214 132.141L54.8603 106.092L54.2692 105.989ZM49.7303 132.038V132.638H72.0302V132.038V131.438H49.7303V132.038ZM72.0302 132.038L71.4397 131.932L67.4928 153.837L68.0833 153.943L68.6738 154.05L72.6207 132.145L72.0302 132.038ZM68.0833 153.943V153.343H-0.00047183V153.943V154.543H68.0833V153.943ZM-0.00047183 153.943L0.59002 154.05L4.53691 132.145L3.94641 132.038L3.35592 131.932L-0.590963 153.837L-0.00047183 153.943ZM89.9885 84.0835V84.6835C96.3736 84.6835 101.927 83.5528 106.63 81.2683L106.368 80.7286L106.106 80.1889C101.6 82.3776 96.2335 83.4835 89.9885 83.4835V84.0835ZM106.368 80.7286L106.63 81.2683C111.33 78.9854 114.972 75.7527 117.536 71.5696L117.025 71.2561L116.513 70.9426C114.078 74.9165 110.615 77.9987 106.106 80.1889L106.368 80.7286ZM117.025 71.2561L117.536 71.5696C120.099 67.3875 121.374 62.6064 121.374 57.2447H120.774H120.174C120.174 62.408 118.949 66.9678 116.513 70.9426L117.025 71.2561ZM120.774 57.2447H121.374C121.374 50.6693 119.356 45.6115 115.238 42.1803L114.854 42.6412L114.47 43.1021C118.246 46.249 120.174 50.9268 120.174 57.2447H120.774ZM114.854 42.6412L115.246 42.1867C111.273 38.762 105.182 37.1076 97.0929 37.1076V37.7076V38.3076C105.055 38.3076 110.804 39.9423 114.462 43.0956L114.854 42.6412ZM97.0929 37.7076V37.1076H66.1099V37.7076V38.3076H97.0929V37.7076ZM66.1099 37.7076L65.5188 37.6045L57.4277 83.9804L58.0187 84.0835L58.6098 84.1866L66.7009 37.8107L66.1099 37.7076ZM58.0187 84.0835V84.6835H89.9885V84.0835V83.4835H58.0187V84.0835ZM170.093 151.97L169.821 152.505L169.833 152.511L170.093 151.97ZM153.714 136.774L153.197 137.079L153.199 137.083L153.714 136.774ZM156.082 82.11L156.594 82.422L156.596 82.4187L156.082 82.11ZM178.382 60.5995L178.671 61.1254V61.1254L178.382 60.5995ZM232.651 58.2314L232.379 58.7661L232.391 58.772L232.651 58.2314ZM249.228 73.2296L248.714 73.5383L248.718 73.5457L249.228 73.2296ZM247.058 127.697L246.543 127.388L246.54 127.393L247.058 127.697ZM224.955 149.404L225.244 149.93L225.25 149.927L224.955 149.404ZM214.693 130.262L214.354 129.767L214.348 129.771L214.693 130.262ZM226.139 116.843L226.681 117.101V117.101L226.139 116.843ZM223.574 81.1233L223.143 81.5411L223.149 81.5476L223.574 81.1233ZM188.446 79.9393L188.785 80.4345L188.794 80.4284L188.446 79.9393ZM177 93.3587L177.54 93.6217L177.542 93.6166L177 93.3587ZM179.566 128.881L179.135 129.299L179.142 129.305L179.566 128.881ZM194.367 157.101V156.501C185.365 156.501 177.365 154.805 170.354 151.429L170.093 151.97L169.833 152.511C177.03 155.976 185.212 157.701 194.367 157.701V157.101ZM170.093 151.97L170.366 151.435C163.491 147.933 158.116 142.945 154.228 136.466L153.714 136.774L153.199 137.083C157.205 143.76 162.75 148.902 169.821 152.505L170.093 151.97ZM153.714 136.774L154.231 136.47C150.347 129.868 148.393 122.018 148.393 112.896H147.793H147.193C147.193 122.192 149.186 130.261 153.197 137.079L153.714 136.774ZM147.793 112.896H148.393C148.393 101.551 151.13 91.3986 156.594 82.422L156.082 82.11L155.569 81.7981C149.982 90.9772 147.193 101.349 147.193 112.896H147.793ZM156.082 82.11L156.596 82.4187C162.068 73.2997 169.424 66.2048 178.671 61.1254L178.382 60.5995L178.093 60.0736C168.658 65.2561 161.147 72.5016 155.567 81.8013L156.082 82.11ZM178.382 60.5995L178.671 61.1254C187.921 56.0443 197.951 53.5031 208.773 53.5031V52.9031V52.3031C197.755 52.3031 187.525 54.8928 178.093 60.0736L178.382 60.5995ZM208.773 52.9031V53.5031C217.638 53.5031 225.502 55.2626 232.379 58.766L232.651 58.2314L232.924 57.6968C225.855 54.0958 217.8 52.3031 208.773 52.3031V52.9031ZM232.651 58.2314L232.391 58.772C239.393 62.1433 244.829 67.0635 248.714 73.5382L249.228 73.2296L249.743 72.9209C245.734 66.2393 240.119 61.1607 232.912 57.6908L232.651 58.2314ZM249.228 73.2296L248.718 73.5457C252.728 80.0122 254.746 87.7918 254.746 96.9109H255.346H255.946C255.946 87.6112 253.886 79.6032 249.738 72.9134L249.228 73.2296ZM255.346 96.9109H254.746C254.746 108.123 252.01 118.277 246.543 127.388L247.058 127.697L247.572 128.005C253.157 118.698 255.946 108.328 255.946 96.9109H255.346ZM247.058 127.697L246.54 127.393C241.2 136.511 233.909 143.671 224.661 148.882L224.955 149.404L225.25 149.927C234.683 144.613 242.127 137.301 247.575 128L247.058 127.697ZM224.955 149.404L224.666 148.879C215.417 153.959 205.321 156.501 194.367 156.501V157.101V157.701C205.515 157.701 215.811 155.112 225.244 149.93L224.955 149.404ZM197.524 135.393V135.993C204.212 135.993 210.059 134.252 215.038 130.753L214.693 130.262L214.348 129.771C209.592 133.113 203.992 134.793 197.524 134.793V135.393ZM214.693 130.262L215.032 130.757C220.12 127.276 224.005 122.721 226.681 117.101L226.139 116.843L225.597 116.585C223.011 122.016 219.265 126.407 214.354 129.767L214.693 130.262ZM226.139 116.843L226.681 117.101C229.352 111.492 230.686 105.483 230.686 99.0816H230.086H229.486C229.486 105.31 228.189 111.142 225.597 116.585L226.139 116.843ZM230.086 99.0816H230.686C230.686 91.3328 228.478 85.1791 223.998 80.6991L223.574 81.1233L223.149 81.5476C227.352 85.7507 229.486 91.5692 229.486 99.0816H230.086ZM223.574 81.1233L224.004 80.7056C219.655 76.2208 213.63 74.011 206.01 74.011V74.611V75.211C213.388 75.211 219.072 77.3427 223.143 81.541L223.574 81.1233ZM206.01 74.611V74.011C199.188 74.011 193.209 75.819 188.099 79.4501L188.446 79.9393L188.794 80.4284C193.682 76.9551 199.413 75.211 206.01 75.211V74.611ZM188.446 79.9393L188.108 79.4441C183.02 82.9251 179.135 87.4805 176.459 93.1007L177 93.3587L177.542 93.6166C180.128 88.1855 183.874 83.7946 188.785 80.4344L188.446 79.9393ZM177 93.3587L176.461 93.0956C173.789 98.5741 172.453 104.453 172.453 110.725H173.053H173.653C173.653 104.63 174.95 98.9313 177.54 93.6217L177 93.3587ZM173.053 110.725H172.453C172.453 118.475 174.662 124.689 179.135 129.299L179.566 128.881L179.996 128.463C175.787 124.126 173.653 118.237 173.653 110.725H173.053ZM179.566 128.881L179.142 129.305C183.622 133.785 189.775 135.993 197.524 135.993V135.393V134.793C190.012 134.793 184.193 132.659 179.99 128.456L179.566 128.881ZM260.028 133.222V132.622H259.527L259.438 133.115L260.028 133.222ZM276.605 133.222V133.822H277.109L277.196 133.326L276.605 133.222ZM286.472 76.7817L287.064 76.8851L287.186 76.1817H286.472V76.7817ZM269.896 76.7817L269.305 76.6749L269.177 77.3817H269.896V76.7817ZM273.645 56.0606V55.4606H273.144L273.055 55.9538L273.645 56.0606ZM312.522 56.0606L313.12 56.1052L313.168 55.4606H312.522V56.0606ZM311.535 69.2827L310.937 69.238L310.796 71.1211L311.998 69.6645L311.535 69.2827ZM325.941 57.2447L326.22 57.776L326.23 57.7704L325.941 57.2447ZM353.57 54.4818L353.405 55.0588L353.414 55.0615L353.424 55.0639L353.57 54.4818ZM363.239 58.8234L363.764 59.1152L364.024 58.6468L363.588 58.3352L363.239 58.8234ZM350.609 81.518L350.273 82.0152L350.816 82.3814L351.134 81.8098L350.609 81.518ZM321.402 79.9393L321.091 79.4264V79.4264L321.402 79.9393ZM312.127 89.8065L312.647 90.1059V90.1059L312.127 89.8065ZM306.799 105.594L307.39 105.695L307.39 105.695L306.799 105.594ZM302.063 133.222L301.471 133.121L301.351 133.822H302.063V133.222ZM321.205 133.222L321.796 133.324L321.917 132.622H321.205V133.222ZM317.653 153.943V154.543H318.159L318.244 154.045L317.653 153.943ZM256.279 153.943L255.688 153.837L255.56 154.543H256.279V153.943ZM260.028 133.222V133.822H276.605V133.222V132.622H260.028V133.222ZM276.605 133.222L277.196 133.326L287.064 76.8851L286.472 76.7817L285.881 76.6784L276.014 133.119L276.605 133.222ZM286.472 76.7817V76.1817H269.896V76.7817V77.3817H286.472V76.7817ZM269.896 76.7817L270.486 76.8886L274.236 56.1674L273.645 56.0606L273.055 55.9538L269.305 76.6749L269.896 76.7817ZM273.645 56.0606V56.6606H312.522V56.0606V55.4606H273.645V56.0606ZM312.522 56.0606L311.924 56.0159L310.937 69.238L311.535 69.2827L312.134 69.3273L313.12 56.1052L312.522 56.0606ZM311.535 69.2827L311.998 69.6645C316.296 64.4545 321.038 60.4966 326.22 57.7759L325.941 57.2447L325.662 56.7134C320.32 59.5184 315.457 63.5858 311.072 68.9008L311.535 69.2827ZM325.941 57.2447L326.23 57.7704C331.408 54.9228 336.834 53.5031 342.518 53.5031V52.9031V52.3031C336.625 52.3031 331 53.7777 325.652 56.7189L325.941 57.2447ZM342.518 52.9031V53.5031C346.144 53.5031 349.772 54.021 353.405 55.0588L353.57 54.4818L353.734 53.9049C349.999 52.8377 346.26 52.3031 342.518 52.3031V52.9031ZM353.57 54.4818L353.424 55.0639C357.043 55.9688 360.196 57.3868 362.891 59.3117L363.239 58.8234L363.588 58.3352C360.757 56.3131 357.463 54.8368 353.715 53.8998L353.57 54.4818ZM363.239 58.8234L362.715 58.5316L350.085 81.2262L350.609 81.518L351.134 81.8098L363.764 59.1152L363.239 58.8234ZM350.609 81.518L350.945 81.0209C345.969 77.6583 340.192 75.9844 333.638 75.9844V76.5844V77.1844C339.977 77.1844 345.514 78.7996 350.273 82.0152L350.609 81.518ZM333.638 76.5844V75.9844C329.059 75.9844 324.872 77.1306 321.091 79.4264L321.402 79.9393L321.714 80.4521C325.3 78.2748 329.27 77.1844 333.638 77.1844V76.5844ZM321.402 79.9393L321.091 79.4264C317.308 81.7234 314.149 85.0922 311.607 89.5071L312.127 89.8065L312.647 90.1059C315.105 85.8375 318.13 82.6283 321.714 80.4521L321.402 79.9393ZM312.127 89.8065L311.607 89.5071C309.065 93.9234 307.269 99.2569 306.207 105.493L306.799 105.594L307.39 105.695C308.434 99.5643 310.191 94.3726 312.647 90.1059L312.127 89.8065ZM306.799 105.594L306.208 105.493L301.471 133.121L302.063 133.222L302.654 133.324L307.39 105.695L306.799 105.594ZM302.063 133.222V133.822H321.205V133.222V132.622H302.063V133.222ZM321.205 133.222L320.614 133.121L317.061 153.842L317.653 153.943L318.244 154.045L321.796 133.324L321.205 133.222ZM317.653 153.943V153.343H256.279V153.943V154.543H317.653V153.943ZM256.279 153.943L256.869 154.05L260.619 133.329L260.028 133.222L259.438 133.115L255.688 153.837L256.279 153.943ZM382.354 147.431L381.856 147.766L381.861 147.773L382.354 147.431ZM378.999 119.803L379.59 119.907L379.59 119.906L378.999 119.803ZM386.498 76.7817L387.089 76.8848L387.212 76.1817H386.498V76.7817ZM367.553 76.7817L366.962 76.6804L366.842 77.3817H367.553V76.7817ZM371.105 56.0606V55.4606H370.6L370.514 55.9592L371.105 56.0606ZM390.05 56.0606V56.6606H390.551L390.641 56.1683L390.05 56.0606ZM394.589 31.1952L394.526 30.5986L394.08 30.6463L393.999 31.0875L394.589 31.1952ZM420.441 28.4324L421.032 28.5379L421.173 27.7508L420.378 27.8358L420.441 28.4324ZM415.508 56.0606L414.917 55.9551L414.791 56.6606H415.508V56.0606ZM442.149 56.0606L442.741 56.162L442.861 55.4606H442.149V56.0606ZM438.597 76.7817V77.3817H439.103L439.189 76.8831L438.597 76.7817ZM411.956 76.7817V76.1817H411.454L411.365 76.6758L411.956 76.7817ZM404.062 120.79L403.471 120.684L403.47 120.691L404.062 120.79ZM405.049 131.643L404.529 131.944L404.535 131.954L404.541 131.964L405.049 131.643ZM420.836 134.209L420.664 133.634L420.655 133.637L420.836 134.209ZM428.138 131.249L428.734 131.178L428.63 130.309L427.857 130.718L428.138 131.249ZM430.506 151.181L430.79 151.709L431.15 151.515L431.102 151.11L430.506 151.181ZM418.863 155.522L418.721 154.939L418.717 154.94L418.863 155.522ZM405.443 157.101V156.501C394.637 156.501 387.168 153.316 382.847 147.089L382.354 147.431L381.861 147.773C386.487 154.439 394.41 157.701 405.443 157.701V157.101ZM382.354 147.431L382.852 147.096C378.635 140.834 377.497 131.809 379.59 119.907L378.999 119.803L378.408 119.699C376.291 131.741 377.39 141.135 381.856 147.766L382.354 147.431ZM378.999 119.803L379.59 119.906L387.089 76.8848L386.498 76.7817L385.907 76.6787L378.408 119.7L378.999 119.803ZM386.498 76.7817V76.1817H367.553V76.7817V77.3817H386.498V76.7817ZM367.553 76.7817L368.145 76.8831L371.697 56.162L371.105 56.0606L370.514 55.9592L366.962 76.6804L367.553 76.7817ZM371.105 56.0606V56.6606H390.05V56.0606V55.4606H371.105V56.0606ZM390.05 56.0606L390.641 56.1683L395.18 31.303L394.589 31.1952L393.999 31.0875L389.46 55.9529L390.05 56.0606ZM394.589 31.1952L394.653 31.7918L420.505 29.029L420.441 28.4324L420.378 27.8358L394.526 30.5986L394.589 31.1952ZM420.441 28.4324L419.851 28.3269L414.917 55.9551L415.508 56.0606L416.099 56.1661L421.032 28.5379L420.441 28.4324ZM415.508 56.0606V56.6606H442.149V56.0606V55.4606H415.508V56.0606ZM442.149 56.0606L441.558 55.9592L438.006 76.6804L438.597 76.7817L439.189 76.8831L442.741 56.162L442.149 56.0606ZM438.597 76.7817V76.1817H411.956V76.7817V77.3817H438.597V76.7817ZM411.956 76.7817L411.365 76.6758L403.471 120.684L404.062 120.79L404.652 120.895L412.546 76.8877L411.956 76.7817ZM404.062 120.79L403.47 120.691C402.672 125.481 402.979 129.266 404.529 131.944L405.049 131.643L405.568 131.343C404.224 129.021 403.873 125.571 404.654 120.888L404.062 120.79ZM405.049 131.643L404.541 131.964C406.262 134.688 409.186 135.993 413.14 135.993V135.393V134.793C409.463 134.793 406.993 133.598 405.556 131.323L405.049 131.643ZM413.14 135.393V135.993C415.832 135.993 418.458 135.589 421.017 134.781L420.836 134.209L420.655 133.637C418.214 134.408 415.71 134.793 413.14 134.793V135.393ZM420.836 134.209L421.009 134.784C423.674 133.984 426.145 132.983 428.419 131.779L428.138 131.249L427.857 130.718C425.658 131.883 423.261 132.855 420.664 133.634L420.836 134.209ZM428.138 131.249L427.542 131.32L429.91 151.251L430.506 151.181L431.102 151.11L428.734 131.178L428.138 131.249ZM430.506 151.181L430.222 150.652C426.852 152.467 423.02 153.897 418.721 154.939L418.863 155.522L419.004 156.105C423.388 155.042 427.319 153.578 430.79 151.709L430.506 151.181ZM418.863 155.522L418.717 154.94C414.559 155.98 410.135 156.501 405.443 156.501V157.101V157.701C410.224 157.701 414.747 157.17 419.008 156.104L418.863 155.522ZM445.089 133.222V132.622H444.588L444.499 133.115L445.089 133.222ZM461.666 133.222V133.822H462.171L462.257 133.326L461.666 133.222ZM471.534 76.7817L472.125 76.8851L472.248 76.1817H471.534V76.7817ZM452.786 76.7817L452.195 76.6749L452.068 77.3817H452.786V76.7817ZM456.535 56.0606V55.4606H456.034L455.945 55.9538L456.535 56.0606ZM475.086 56.0606V56.6606H475.571L475.672 56.1863L475.086 56.0606ZM476.27 50.535L476.857 50.6607L476.859 50.6491L476.861 50.6375L476.27 50.535ZM488.9 21.92L488.48 21.4913L488.476 21.4958L488.9 21.92ZM530.54 14.8156L530.702 14.2382V14.2382L530.54 14.8156ZM544.354 20.736L544.87 21.0423L545.172 20.5336L544.667 20.2244L544.354 20.736ZM533.105 39.681L532.781 40.1857L533.304 40.5219L533.621 39.9873L533.105 39.681ZM506.464 38.1023L506.911 38.5023V38.5023L506.464 38.1023ZM501.727 49.7456L502.317 49.8562L502.318 49.849L501.727 49.7456ZM500.543 56.0606L499.953 55.95L499.82 56.6606H500.543V56.0606ZM528.566 56.0606L529.157 56.162L529.278 55.4606H528.566V56.0606ZM525.014 76.7817V77.3817H525.52L525.605 76.8831L525.014 76.7817ZM496.991 76.7817V76.1817H496.487L496.4 76.6784L496.991 76.7817ZM487.124 133.222L486.533 133.119L486.41 133.822H487.124V133.222ZM508.437 133.222L509.027 133.329L509.155 132.622H508.437V133.222ZM504.687 153.943V154.543H505.189L505.278 154.05L504.687 153.943ZM441.34 153.943L440.75 153.837L440.622 154.543H441.34V153.943ZM445.089 133.222V133.822H461.666V133.222V132.622H445.089V133.222ZM461.666 133.222L462.257 133.326L472.125 76.8851L471.534 76.7817L470.943 76.6784L461.075 133.119L461.666 133.222ZM471.534 76.7817V76.1817H452.786V76.7817V77.3817H471.534V76.7817ZM452.786 76.7817L453.376 76.8886L457.126 56.1674L456.535 56.0606L455.945 55.9538L452.195 76.6749L452.786 76.7817ZM456.535 56.0606V56.6606H475.086V56.0606V55.4606H456.535V56.0606ZM475.086 56.0606L475.672 56.1863L476.857 50.6607L476.27 50.535L475.683 50.4092L474.499 55.9349L475.086 56.0606ZM476.27 50.535L476.861 50.6375C479.086 37.8091 483.262 28.4067 489.324 22.3443L488.9 21.92L488.476 21.4958C482.171 27.8003 477.927 37.4745 475.679 50.4324L476.27 50.535ZM488.9 21.92L489.32 22.3487C495.496 16.301 504.014 13.2449 514.949 13.2449V12.6449V12.0449C503.783 12.0449 494.934 15.1722 488.48 21.4913L488.9 21.92ZM514.949 12.6449V13.2449C520.156 13.2449 525.298 13.9607 530.377 15.3931L530.54 14.8156L530.702 14.2382C525.519 12.7762 520.268 12.0449 514.949 12.0449V12.6449ZM530.54 14.8156L530.377 15.3931C535.461 16.827 540.014 18.7797 544.04 21.2475L544.354 20.736L544.667 20.2244C540.537 17.6929 535.88 15.6986 530.702 14.2382L530.54 14.8156ZM544.354 20.736L543.838 20.4297L532.589 39.3747L533.105 39.681L533.621 39.9873L544.87 21.0423L544.354 20.736ZM533.105 39.681L533.43 39.1763C527.818 35.569 521.984 33.7527 515.936 33.7527V34.3527V34.9527C521.729 34.9527 527.341 36.6887 532.781 40.1857L533.105 39.681ZM515.936 34.3527V33.7527C511.727 33.7527 508.391 35.0482 506.016 37.7022L506.464 38.1023L506.911 38.5023C509.009 36.1569 511.988 34.9527 515.936 34.9527V34.3527ZM506.464 38.1023L506.016 37.7022C503.673 40.3212 502.066 44.3288 501.136 49.6422L501.727 49.7456L502.318 49.849C503.23 44.6373 504.781 40.8827 506.911 38.5023L506.464 38.1023ZM501.727 49.7456L501.138 49.635L499.953 55.95L500.543 56.0606L501.133 56.1712L502.317 49.8562L501.727 49.7456ZM500.543 56.0606V56.6606H528.566V56.0606V55.4606H500.543V56.0606ZM528.566 56.0606L527.975 55.9592L524.423 76.6804L525.014 76.7817L525.605 76.8831L529.157 56.162L528.566 56.0606ZM525.014 76.7817V76.1817H496.991V76.7817V77.3817H525.014V76.7817ZM496.991 76.7817L496.4 76.6784L486.533 133.119L487.124 133.222L487.715 133.326L497.582 76.8851L496.991 76.7817ZM487.124 133.222V133.822H508.437V133.222V132.622H487.124V133.222ZM508.437 133.222L507.847 133.115L504.097 153.837L504.687 153.943L505.278 154.05L509.027 133.329L508.437 133.222ZM504.687 153.943V153.343H441.34V153.943V154.543H504.687V153.943ZM441.34 153.943L441.93 154.05L445.68 133.329L445.089 133.222L444.499 133.115L440.75 153.837L441.34 153.943ZM550.328 151.97L550.055 152.505L550.068 152.511L550.328 151.97ZM533.948 136.774L533.431 137.079L533.434 137.083L533.948 136.774ZM536.316 82.11L536.829 82.422L536.831 82.4187L536.316 82.11ZM558.616 60.5995L558.905 61.1254V61.1254L558.616 60.5995ZM612.886 58.2314L612.614 58.7661L612.626 58.772L612.886 58.2314ZM629.463 73.2296L628.948 73.5383L628.953 73.5457L629.463 73.2296ZM627.292 127.697L626.778 127.388L626.774 127.393L627.292 127.697ZM605.19 149.404L605.479 149.93L605.484 149.927L605.19 149.404ZM594.928 130.262L594.589 129.767L594.583 129.771L594.928 130.262ZM606.374 116.843L606.915 117.101V117.101L606.374 116.843ZM603.808 81.1233L603.377 81.5411L603.384 81.5476L603.808 81.1233ZM568.681 79.9393L569.02 80.4345L569.028 80.4284L568.681 79.9393ZM557.235 93.3587L557.774 93.6217L557.777 93.6166L557.235 93.3587ZM559.8 128.881L559.37 129.299L559.376 129.305L559.8 128.881ZM574.601 157.101V156.501C565.6 156.501 557.6 154.805 550.588 151.429L550.328 151.97L550.068 152.511C557.265 155.976 565.447 157.701 574.601 157.701V157.101ZM550.328 151.97L550.6 151.435C543.726 147.933 538.351 142.945 534.463 136.466L533.948 136.774L533.434 137.083C537.44 143.76 542.985 148.902 550.056 152.505L550.328 151.97ZM533.948 136.774L534.466 136.47C530.582 129.868 528.628 122.018 528.628 112.896H528.028H527.428C527.428 122.192 529.421 130.261 533.431 137.079L533.948 136.774ZM528.028 112.896H528.628C528.628 101.551 531.365 91.3986 536.829 82.422L536.316 82.11L535.804 81.7981C530.217 90.9772 527.428 101.349 527.428 112.896H528.028ZM536.316 82.11L536.831 82.4187C542.302 73.2997 549.658 66.2048 558.905 61.1254L558.616 60.5995L558.328 60.0736C548.893 65.2561 541.382 72.5016 535.802 81.8013L536.316 82.11ZM558.616 60.5995L558.905 61.1254C568.155 56.0443 578.186 53.5031 589.007 53.5031V52.9031V52.3031C577.989 52.3031 567.759 54.8928 558.328 60.0736L558.616 60.5995ZM589.007 52.9031V53.5031C597.873 53.5031 605.737 55.2626 612.614 58.766L612.886 58.2314L613.158 57.6968C606.09 54.0958 598.035 52.3031 589.007 52.3031V52.9031ZM612.886 58.2314L612.626 58.772C619.628 62.1433 625.064 67.0635 628.948 73.5382L629.463 73.2296L629.977 72.9209C625.969 66.2393 620.353 61.1607 613.146 57.6908L612.886 58.2314ZM629.463 73.2296L628.953 73.5457C632.962 80.0122 634.981 87.7918 634.981 96.9109H635.581H636.181C636.181 87.6112 634.121 79.6032 629.973 72.9134L629.463 73.2296ZM635.581 96.9109H634.981C634.981 108.123 632.244 118.277 626.778 127.388L627.292 127.697L627.807 128.005C633.391 118.698 636.181 108.328 636.181 96.9109H635.581ZM627.292 127.697L626.774 127.393C621.434 136.511 614.144 143.671 604.895 148.882L605.19 149.404L605.484 149.927C614.917 144.613 622.362 137.301 627.81 128L627.292 127.697ZM605.19 149.404L604.901 148.879C595.652 153.959 585.555 156.501 574.601 156.501V157.101V157.701C585.75 157.701 596.046 155.112 605.479 149.93L605.19 149.404ZM577.759 135.393V135.993C584.447 135.993 590.293 134.252 595.273 130.753L594.928 130.262L594.583 129.771C589.827 133.113 584.227 134.793 577.759 134.793V135.393ZM594.928 130.262L595.267 130.757C600.354 127.276 604.239 122.721 606.915 117.101L606.374 116.843L605.832 116.585C603.246 122.016 599.5 126.407 594.589 129.767L594.928 130.262ZM606.374 116.843L606.915 117.101C609.586 111.492 610.921 105.483 610.921 99.0816H610.321H609.721C609.721 105.31 608.424 111.142 605.832 116.585L606.374 116.843ZM610.321 99.0816H610.921C610.921 91.3328 608.713 85.1791 604.232 80.6991L603.808 81.1233L603.384 81.5476C607.587 85.7507 609.721 91.5692 609.721 99.0816H610.321ZM603.808 81.1233L604.239 80.7056C599.89 76.2208 593.865 74.011 586.245 74.011V74.611V75.211C593.623 75.211 599.306 77.3427 603.377 81.541L603.808 81.1233ZM586.245 74.611V74.011C579.423 74.011 573.444 75.819 568.333 79.4501L568.681 79.9393L569.028 80.4284C573.917 76.9551 579.647 75.211 586.245 75.211V74.611ZM568.681 79.9393L568.342 79.4441C563.254 82.9251 559.37 87.4805 556.693 93.1007L557.235 93.3587L557.777 93.6166C560.363 88.1855 564.109 83.7946 569.02 80.4344L568.681 79.9393ZM557.235 93.3587L556.696 93.0956C554.023 98.5741 552.688 104.453 552.688 110.725H553.288H553.888C553.888 104.63 555.184 98.9313 557.774 93.6217L557.235 93.3587ZM553.288 110.725H552.688C552.688 118.475 554.896 124.689 559.37 129.299L559.8 128.881L560.231 128.463C556.021 124.126 553.888 118.237 553.888 110.725H553.288ZM559.8 128.881L559.376 129.305C563.856 133.785 570.01 135.993 577.759 135.993V135.393V134.793C570.246 134.793 564.428 132.659 560.225 128.456L559.8 128.881ZM638.689 133.222V132.622H638.188L638.098 133.115L638.689 133.222ZM655.068 133.222V133.822H655.572L655.659 133.326L655.068 133.222ZM672.04 36.5235L672.631 36.6272L672.754 35.9235H672.04V36.5235ZM655.463 36.5235L654.872 36.4221L654.751 37.1235H655.463V36.5235ZM659.015 15.8024V15.2024H658.509L658.424 15.701L659.015 15.8024ZM701.05 15.8024L701.641 15.9057L701.764 15.2024H701.05V15.8024ZM680.526 133.222L679.935 133.119L679.812 133.822H680.526V133.222ZM697.103 133.222L697.693 133.329L697.821 132.622H697.103V133.222ZM693.353 153.943V154.543H693.854L693.944 154.05L693.353 153.943ZM634.939 153.943L634.349 153.837L634.221 154.543H634.939V153.943ZM638.689 133.222V133.822H655.068V133.222V132.622H638.689V133.222ZM655.068 133.222L655.659 133.326L672.631 36.6272L672.04 36.5235L671.449 36.4198L654.477 133.118L655.068 133.222ZM672.04 36.5235V35.9235H655.463V36.5235V37.1235H672.04V36.5235ZM655.463 36.5235L656.054 36.6249L659.607 15.9037L659.015 15.8024L658.424 15.701L654.872 36.4221L655.463 36.5235ZM659.015 15.8024V16.4024H701.05V15.8024V15.2024H659.015V15.8024ZM701.05 15.8024L700.459 15.6991L679.935 133.119L680.526 133.222L681.117 133.326L701.641 15.9057L701.05 15.8024ZM680.526 133.222V133.822H697.103V133.222V132.622H680.526V133.222ZM697.103 133.222L696.512 133.115L692.763 153.837L693.353 153.943L693.944 154.05L697.693 133.329L697.103 133.222ZM693.353 153.943V153.343H634.939V153.943V154.543H693.353V153.943ZM634.939 153.943L635.53 154.05L639.279 133.329L638.689 133.222L638.098 133.115L634.349 153.837L634.939 153.943ZM707.334 133.222V132.622H706.833L706.743 133.115L707.334 133.222ZM723.713 133.222V133.822H724.218L724.304 133.326L723.713 133.222ZM733.581 76.7817L734.172 76.8851L734.295 76.1817H733.581V76.7817ZM717.004 76.7817L716.413 76.6749L716.285 77.3817H717.004V76.7817ZM720.753 56.0606V55.4606H720.252L720.163 55.9538L720.753 56.0606ZM762.59 56.0606L763.181 56.1634L763.304 55.4606H762.59V56.0606ZM749.171 133.222L748.58 133.119L748.457 133.822H749.171V133.222ZM765.55 133.222L766.141 133.329L766.269 132.622H765.55V133.222ZM761.801 153.943V154.543H762.302L762.391 154.05L761.801 153.943ZM703.584 153.943L702.994 153.837L702.866 154.543H703.584V153.943ZM742.264 38.6943L741.85 39.1293L741.856 39.1349L741.862 39.1403L742.264 38.6943ZM743.25 17.1838L743.666 17.6167L743.675 17.608L743.25 17.1838ZM766.142 15.9997L765.718 16.424L765.729 16.4351L765.741 16.4457L766.142 15.9997ZM765.156 37.5102L765.571 37.9432L765.58 37.9345L765.156 37.5102ZM707.334 133.222V133.822H723.713V133.222V132.622H707.334V133.222ZM723.713 133.222L724.304 133.326L734.172 76.8851L733.581 76.7817L732.99 76.6784L723.122 133.119L723.713 133.222ZM733.581 76.7817V76.1817H717.004V76.7817V77.3817H733.581V76.7817ZM717.004 76.7817L717.594 76.8886L721.344 56.1674L720.753 56.0606L720.163 55.9538L716.413 76.6749L717.004 76.7817ZM720.753 56.0606V56.6606H762.59V56.0606V55.4606H720.753V56.0606ZM762.59 56.0606L761.999 55.9578L748.58 133.119L749.171 133.222L749.762 133.325L763.181 56.1634L762.59 56.0606ZM749.171 133.222V133.822H765.55V133.222V132.622H749.171V133.222ZM765.55 133.222L764.96 133.115L761.21 153.837L761.801 153.943L762.391 154.05L766.141 133.329L765.55 133.222ZM761.801 153.943V153.343H703.584V153.943V154.543H761.801V153.943ZM703.584 153.943L704.175 154.05L707.924 133.329L707.334 133.222L706.743 133.115L702.994 153.837L703.584 153.943ZM752.526 42.2465V41.6465C748.434 41.6465 745.166 40.4991 742.665 38.2483L742.264 38.6943L741.862 39.1403C744.624 41.6257 748.197 42.8465 752.526 42.8465V42.2465ZM742.264 38.6943L742.677 38.2593C740.172 35.8792 738.917 32.8821 738.917 29.2218H738.317H737.717C737.717 33.1921 739.093 36.51 741.85 39.1293L742.264 38.6943ZM738.317 29.2218H738.917C738.917 24.505 740.503 20.6527 743.666 17.6166L743.25 17.1838L742.835 16.7509C739.419 20.0299 737.717 24.2029 737.717 29.2218H738.317ZM743.25 17.1838L743.675 17.608C746.836 14.4466 750.952 12.8502 756.078 12.8502V12.2502V11.6502C750.679 11.6502 746.243 13.3428 742.826 16.7595L743.25 17.1838ZM756.078 12.2502V12.8502C760.161 12.8502 763.352 14.0579 765.718 16.424L766.142 15.9997L766.567 15.5754C763.933 12.9421 760.414 11.6502 756.078 11.6502V12.2502ZM766.142 15.9997L765.741 16.4457C768.235 18.6904 769.489 21.6148 769.489 25.2749H770.089H770.689C770.689 21.3044 769.312 18.0452 766.544 15.5537L766.142 15.9997ZM770.089 25.2749H769.489C769.489 29.9918 767.902 33.9151 764.731 37.086L765.156 37.5102L765.58 37.9345C768.987 34.5272 770.689 30.2936 770.689 25.2749H770.089ZM765.156 37.5102L764.74 37.0774C761.577 40.1139 757.523 41.6465 752.526 41.6465V42.2465V42.8465C757.79 42.8465 762.156 41.2216 765.571 37.9431L765.156 37.5102ZM800.67 151.97L800.398 152.505L800.41 152.511L800.67 151.97ZM784.29 136.774L783.773 137.079L783.776 137.083L784.29 136.774ZM786.659 82.11L787.171 82.422L787.173 82.4187L786.659 82.11ZM808.958 60.5995L809.247 61.1254V61.1254L808.958 60.5995ZM863.228 58.2314L862.956 58.7661L862.968 58.772L863.228 58.2314ZM879.805 73.2296L879.29 73.5383L879.295 73.5457L879.805 73.2296ZM877.634 127.697L877.12 127.388L877.117 127.393L877.634 127.697ZM855.532 149.404L855.821 149.93L855.826 149.927L855.532 149.404ZM845.27 130.262L844.931 129.767L844.925 129.771L845.27 130.262ZM856.716 116.843L857.257 117.101V117.101L856.716 116.843ZM854.15 81.1233L853.719 81.5411L853.726 81.5476L854.15 81.1233ZM819.023 79.9393L819.362 80.4345L819.37 80.4284L819.023 79.9393ZM807.577 93.3587L808.116 93.6217L808.119 93.6166L807.577 93.3587ZM810.142 128.881L809.712 129.299L809.718 129.305L810.142 128.881ZM824.943 157.101V156.501C815.942 156.501 807.942 154.805 800.93 151.429L800.67 151.97L800.41 152.511C807.607 155.976 815.789 157.701 824.943 157.701V157.101ZM800.67 151.97L800.942 151.435C794.068 147.933 788.693 142.945 784.805 136.466L784.29 136.774L783.776 137.083C787.782 143.76 793.327 148.902 800.398 152.505L800.67 151.97ZM784.29 136.774L784.808 136.47C780.924 129.868 778.97 122.018 778.97 112.896H778.37H777.77C777.77 122.192 779.763 130.261 783.773 137.079L784.29 136.774ZM778.37 112.896H778.97C778.97 101.551 781.707 91.3986 787.171 82.422L786.659 82.11L786.146 81.7981C780.559 90.9772 777.77 101.349 777.77 112.896H778.37ZM786.659 82.11L787.173 82.4187C792.644 73.2997 800 66.2048 809.247 61.1254L808.958 60.5995L808.67 60.0736C799.235 65.2561 791.724 72.5016 786.144 81.8013L786.659 82.11ZM808.958 60.5995L809.247 61.1254C818.497 56.0443 828.528 53.5031 839.349 53.5031V52.9031V52.3031C828.331 52.3031 818.101 54.8928 808.67 60.0736L808.958 60.5995ZM839.349 52.9031V53.5031C848.215 53.5031 856.079 55.2626 862.956 58.766L863.228 58.2314L863.5 57.6968C856.432 54.0958 848.377 52.3031 839.349 52.3031V52.9031ZM863.228 58.2314L862.968 58.772C869.97 62.1433 875.406 67.0635 879.291 73.5382L879.805 73.2296L880.32 72.9209C876.311 66.2393 870.695 61.1607 863.488 57.6908L863.228 58.2314ZM879.805 73.2296L879.295 73.5457C883.304 80.0122 885.323 87.7918 885.323 96.9109H885.923H886.523C886.523 87.6112 884.463 79.6032 880.315 72.9134L879.805 73.2296ZM885.923 96.9109H885.323C885.323 108.123 882.586 118.277 877.12 127.388L877.634 127.697L878.149 128.005C883.733 118.698 886.523 108.328 886.523 96.9109H885.923ZM877.634 127.697L877.117 127.393C871.776 136.511 864.486 143.671 855.237 148.882L855.532 149.404L855.826 149.927C865.259 144.613 872.704 137.301 878.152 128L877.634 127.697ZM855.532 149.404L855.243 148.879C845.994 153.959 835.897 156.501 824.943 156.501V157.101V157.701C836.092 157.701 846.388 155.112 855.821 149.93L855.532 149.404ZM828.101 135.393V135.993C834.789 135.993 840.635 134.252 845.615 130.753L845.27 130.262L844.925 129.771C840.169 133.113 834.569 134.793 828.101 134.793V135.393ZM845.27 130.262L845.609 130.757C850.696 127.276 854.581 122.721 857.257 117.101L856.716 116.843L856.174 116.585C853.588 122.016 849.842 126.407 844.931 129.767L845.27 130.262ZM856.716 116.843L857.257 117.101C859.928 111.492 861.263 105.483 861.263 99.0816H860.663H860.063C860.063 105.31 858.766 111.142 856.174 116.585L856.716 116.843ZM860.663 99.0816H861.263C861.263 91.3328 859.055 85.1791 854.575 80.6991L854.15 81.1233L853.726 81.5476C857.929 85.7507 860.063 91.5692 860.063 99.0816H860.663ZM854.15 81.1233L854.581 80.7056C850.232 76.2208 844.207 74.011 836.587 74.011V74.611V75.211C843.965 75.211 849.648 77.3427 853.719 81.541L854.15 81.1233ZM836.587 74.611V74.011C829.765 74.011 823.786 75.819 818.675 79.4501L819.023 79.9393L819.37 80.4284C824.259 76.9551 829.989 75.211 836.587 75.211V74.611ZM819.023 79.9393L818.684 79.4441C813.596 82.9251 809.712 87.4805 807.035 93.1007L807.577 93.3587L808.119 93.6166C810.705 88.1855 814.451 83.7946 819.362 80.4344L819.023 79.9393ZM807.577 93.3587L807.038 93.0956C804.365 98.5741 803.03 104.453 803.03 110.725H803.63H804.23C804.23 104.63 805.526 98.9313 808.116 93.6217L807.577 93.3587ZM803.63 110.725H803.03C803.03 118.475 805.238 124.689 809.712 129.299L810.142 128.881L810.573 128.463C806.363 124.126 804.23 118.237 804.23 110.725H803.63ZM810.142 128.881L809.718 129.305C814.198 133.785 820.352 135.993 828.101 135.993V135.393V134.793C820.588 134.793 814.77 132.659 810.567 128.456L810.142 128.881Z" fill="white" mask="url(#path-1-inside-1_2214_137553)"/>
</svg>
