<svg width="791" height="160" viewBox="0 0 791 160" fill="none" xmlns="http://www.w3.org/2000/svg">
<mask id="mask0_2209_22424" style="mask-type:luminance" maskUnits="userSpaceOnUse" x="0" y="0" width="160" height="160">
<path d="M160 0H0V160H160V0Z" fill="white"/>
</mask>
<g mask="url(#mask0_2209_22424)">
<path d="M80 0C35.816 0 0 35.816 0 80C0 124.184 35.816 160 80 160C124.184 160 160 124.184 160 80C160 35.816 124.184 0 80 0ZM130.088 106.245H128.787C120.901 106.245 113.76 99.5893 113.76 88.704L104.664 102.712C101.768 107.173 95.8427 108.477 91.3467 105.685C85.144 103.883 80.1973 97.76 80.1973 88.6987L72.0747 101.211C71.864 101.587 71.6267 101.952 71.368 102.296L71.1013 102.709C68.168 107.227 62.128 108.512 57.6107 105.576C57.488 105.496 57.3707 105.413 57.248 105.328C51.5547 103.163 47.1627 97.232 47.1627 88.6987L38.0667 102.707C35.1333 107.224 29.0933 108.509 24.576 105.573C20.0587 102.64 18.7733 96.6 21.7093 92.0827H21.7013L44.304 57.28C47.2373 52.7627 53.2773 51.48 57.7947 54.4133C62.312 57.3467 63.5973 63.3867 60.6613 67.904L50.168 84.064C50.1893 84.0347 50.2107 84.0053 50.232 83.976C49.5067 85.448 49.624 87.2107 49.624 89.0293C49.624 91.9813 51.912 95.9173 53.1733 96.96C53.248 95.28 53.7547 93.6027 54.736 92.0907L77.3387 57.2853C80.272 52.768 86.312 51.4827 90.8293 54.4187C95.3467 57.352 96.632 63.392 93.696 67.9093L83.2027 84.0693C83.224 84.04 83.2427 84.0107 83.2667 83.9813C82.5413 85.4533 82.6587 87.216 82.6587 89.0347C82.6587 92.4667 85.752 97.2293 86.7307 97.2293H86.7333C86.7573 95.888 87.056 94.5387 87.6533 93.2693C88.032 92.2907 88.6027 91.3547 89.328 90.5227L110.907 57.288C113.84 52.7707 119.88 51.4853 124.397 54.4213C128.915 57.3547 130.2 63.3947 127.264 67.912L116.771 84.072C116.792 84.0427 116.811 84.0133 116.835 83.984C116.107 85.456 116.227 87.2187 116.227 89.0373C116.227 92.4693 118.776 97.0747 119.752 97.0747C120.376 97.0747 120.667 96.4027 120.691 95.984C120.691 91.6027 124.984 87.0693 130.283 87.0693C135.581 87.0693 139.771 91.264 139.872 96.472C139.976 101.848 135.472 106.248 130.093 106.248L130.088 106.245Z" fill="white"/>
</g>
<path d="M253.556 60.214L253.371 60.1771L235.972 103.286H231.133L213.734 60.214L213.55 60.251L214.288 82.0087V97.5974L220.31 98.6317V103.286H200.99V98.6317L207.011 97.5974V55.2271L200.99 54.1928V49.5014H207.011H216.32L233.46 93.2015H233.682L250.785 49.5014H266.152V54.1928L260.131 55.2271V97.5974L266.152 98.6317V103.286H246.833V98.6317L252.854 97.5974V82.0087L253.556 60.214ZM272.063 98.6317L278.084 97.5974V69.0427L272.063 68.0084V63.317H285.361V97.5974L291.382 98.6317V103.286H272.063V98.6317ZM285.361 53.0846H278.084V45.6596H285.361V53.0846ZM314.913 98.3731C317.327 98.3731 319.444 97.6343 321.267 96.1567C323.114 94.6545 324.037 92.8198 324.037 90.6526H330.576L330.65 90.8743C330.773 94.322 329.234 97.388 326.032 100.072C322.855 102.732 319.149 104.062 314.913 104.062C309.101 104.062 304.656 102.166 301.578 98.3731C298.524 94.5806 296.997 89.8153 296.997 84.0773V82.5258C296.997 76.837 298.536 72.0964 301.615 68.3039C304.693 64.4867 309.126 62.5782 314.913 62.5782C318.115 62.5782 320.984 63.1077 323.52 64.1666C326.081 65.2255 328.199 66.6785 329.874 68.5255L330.206 77.3911H324.407L322.818 71.1113C321.956 70.274 320.848 69.5968 319.494 69.0796C318.139 68.5625 316.612 68.3039 314.913 68.3039C311.096 68.3039 308.362 69.683 306.712 72.4412C305.087 75.1747 304.274 78.5363 304.274 82.5258V84.0773C304.274 88.1653 305.087 91.5761 306.712 94.3097C308.338 97.0186 311.071 98.3731 314.913 98.3731ZM336.745 98.6317L342.766 97.5974V51.3853L336.745 50.351V45.6596H350.043V68.6363C351.422 66.7155 353.109 65.2255 355.104 64.1666C357.099 63.1077 359.315 62.5782 361.753 62.5782C366.038 62.5782 369.363 63.8588 371.727 66.4199C374.091 68.9811 375.273 72.9214 375.273 78.2408V97.5974L381.294 98.6317V103.286H361.975V98.6317L367.996 97.5974V78.1669C367.996 74.8669 367.282 72.4289 365.853 70.8528C364.45 69.2766 362.344 68.4886 359.537 68.4886C357.542 68.4886 355.72 68.9688 354.07 69.9293C352.444 70.8651 351.102 72.1457 350.043 73.771V97.5974L356.064 98.6317V103.286H336.745V98.6317ZM404.456 104.062C398.89 104.062 394.457 102.215 391.157 98.5209C387.882 94.8022 386.244 89.9877 386.244 84.0773V82.4519C386.244 76.7632 387.931 72.0348 391.305 68.2669C394.704 64.4744 398.718 62.5782 403.348 62.5782C408.716 62.5782 412.78 64.2035 415.538 67.4543C418.321 70.705 419.712 75.0393 419.712 80.4572V85.0008H393.78L393.669 85.1855C393.743 89.0273 394.716 92.1918 396.588 94.6791C398.459 97.1418 401.082 98.3731 404.456 98.3731C406.919 98.3731 409.073 98.0283 410.92 97.3388C412.792 96.6246 414.405 95.6519 415.759 94.4205L418.604 99.1488C417.176 100.528 415.279 101.698 412.915 102.658C410.576 103.594 407.756 104.062 404.456 104.062ZM403.348 68.3039C400.91 68.3039 398.829 69.3382 397.105 71.4069C395.381 73.4509 394.322 76.0244 393.928 79.1273L394.002 79.312H412.435V78.3516C412.435 75.4949 411.671 73.1061 410.145 71.1852C408.618 69.2643 406.352 68.3039 403.348 68.3039ZM425.918 50.351V45.6596H439.216V97.5974L445.238 98.6317V103.286H425.918V98.6317L431.939 97.5974V51.3853L425.918 50.351ZM449.781 50.351V45.6596H463.08V97.5974L469.101 98.6317V103.286H449.781V98.6317L455.803 97.5974V51.3853L449.781 50.351ZM492.89 104.062C487.325 104.062 482.892 102.215 479.592 98.5209C476.317 94.8022 474.679 89.9877 474.679 84.0773V82.4519C474.679 76.7632 476.366 72.0348 479.74 68.2669C483.138 64.4744 487.152 62.5782 491.782 62.5782C497.151 62.5782 501.214 64.2035 503.972 67.4543C506.755 70.705 508.147 75.0393 508.147 80.4572V85.0008H482.215L482.104 85.1855C482.178 89.0273 483.15 92.1918 485.022 94.6791C486.894 97.1418 489.516 98.3731 492.89 98.3731C495.353 98.3731 497.508 98.0283 499.355 97.3388C501.226 96.6246 502.84 95.6519 504.194 94.4205L507.038 99.1488C505.61 100.528 503.714 101.698 501.35 102.658C499.01 103.594 496.19 104.062 492.89 104.062ZM491.782 68.3039C489.344 68.3039 487.263 69.3382 485.539 71.4069C483.815 73.4509 482.756 76.0244 482.362 79.1273L482.436 79.312H500.869V78.3516C500.869 75.4949 500.106 73.1061 498.579 71.1852C497.052 69.2643 494.787 68.3039 491.782 68.3039ZM586.09 60.214L585.905 60.1771L568.507 103.286H563.668L546.269 60.214L546.084 60.251L546.823 82.0087V97.5974L552.844 98.6317V103.286H533.524V98.6317L539.546 97.5974V55.2271L533.524 54.1928V49.5014H539.546H548.855L565.995 93.2015H566.216L583.32 49.5014H598.687V54.1928L592.665 55.2271V97.5974L598.687 98.6317V103.286H579.367V98.6317L585.388 97.5974V82.0087L586.09 60.214ZM633.189 97.3757C631.933 99.5182 630.307 101.168 628.313 102.326C626.343 103.483 624.065 104.062 621.479 104.062C617.144 104.062 613.758 102.67 611.32 99.8876C608.882 97.1048 607.663 92.7705 607.663 86.8847V69.0427L603.083 68.0084V63.317H607.663H614.94V86.9586C614.94 91.219 615.568 94.1496 616.824 95.7504C618.08 97.3511 620.038 98.1515 622.698 98.1515C625.284 98.1515 627.414 97.6343 629.088 96.6C630.788 95.541 632.068 94.0511 632.93 92.1302V69.0427L627.574 68.0084V63.317H632.93H640.207V97.5974L644.788 98.6317V103.286H633.669L633.189 97.3757ZM649.479 98.6317L655.501 97.5974V69.0427L649.479 68.0084V63.317H662.002L662.519 69.2643C663.849 67.1464 665.511 65.5088 667.506 64.3513C669.525 63.1692 671.816 62.5782 674.377 62.5782C678.687 62.5782 682.023 63.8465 684.388 66.383C686.752 68.8949 687.934 72.7859 687.934 78.0561V97.5974L693.955 98.6317V103.286H674.635V98.6317L680.657 97.5974V78.2038C680.657 74.6822 679.955 72.1826 678.551 70.705C677.172 69.2274 675.054 68.4886 672.197 68.4886C670.104 68.4886 668.245 68.9934 666.619 70.0031C665.019 71.0128 663.738 72.3919 662.778 74.1404V97.5974L668.799 98.6317V103.286H649.479V98.6317ZM684.462 47.1742C684.462 49.4891 683.723 51.4469 682.245 53.0476C680.792 54.6484 678.957 55.4487 676.741 55.4487C674.993 55.4487 673.17 54.8823 671.274 53.7495C669.378 52.592 667.802 52.0133 666.546 52.0133C665.511 52.0133 664.625 52.4197 663.886 53.2323C663.172 54.0204 662.815 54.9808 662.815 56.1137L658.862 55.1532C658.862 52.8629 659.576 50.8805 661.005 49.2059C662.458 47.5066 664.305 46.657 666.546 46.657C667.925 46.657 669.649 47.2357 671.717 48.3932C673.786 49.5506 675.46 50.1294 676.741 50.1294C677.751 50.1294 678.625 49.7353 679.364 48.9473C680.103 48.1346 680.472 47.1495 680.472 45.9921L684.462 47.1742ZM698.905 82.9322C698.905 77.0217 700.506 72.158 703.707 68.3408C706.909 64.4991 711.255 62.5782 716.747 62.5782C722.264 62.5782 726.622 64.4867 729.824 68.3039C733.05 72.121 734.663 76.9971 734.663 82.9322V83.7448C734.663 89.7045 733.062 94.5806 729.861 98.3731C726.659 102.166 722.313 104.062 716.821 104.062C711.28 104.062 706.909 102.166 703.707 98.3731C700.506 94.556 698.905 89.6799 698.905 83.7448V82.9322ZM706.182 83.7448C706.182 87.9806 707.069 91.4776 708.842 94.2358C710.64 96.994 713.299 98.3731 716.821 98.3731C720.269 98.3731 722.892 96.994 724.689 94.2358C726.487 91.4776 727.386 87.9806 727.386 83.7448V82.9322C727.386 78.7456 726.487 75.2609 724.689 72.4781C722.892 69.6953 720.244 68.3039 716.747 68.3039C713.25 68.3039 710.615 69.6953 708.842 72.4781C707.069 75.2609 706.182 78.7456 706.182 82.9322V83.7448ZM750.252 97.5974H766.579L767.17 91.4284H773.339V103.286H741.608V98.1884L763.218 69.0796H748.589L748.035 75.2117H741.829V63.317H772.12V68.2669L750.252 97.5974Z" fill="white"/>
</svg>
